<?xml version="1.0" encoding="UTF-8" standalone="no"?>
<!-- Created with Inkscape (http://www.inkscape.org/) -->

<svg
   width="1633.5431"
   height="1001.5682"
   viewBox="0 0 432.20828 264.99826"
   version="1.1"
   id="svg42299"
   sodipodi:docname="spennys-slices-logo.svg"
   inkscape:version="1.2.2 (b0a84865, 2022-12-01)"
   inkscape:export-filename="Spenny's Slices, LLC/spennys-slices-logo.jpg"
   inkscape:export-xdpi="96"
   inkscape:export-ydpi="96"
   xmlns:inkscape="http://www.inkscape.org/namespaces/inkscape"
   xmlns:sodipodi="http://sodipodi.sourceforge.net/DTD/sodipodi-0.dtd"
   xmlns="http://www.w3.org/2000/svg"
   xmlns:svg="http://www.w3.org/2000/svg">
  <sodipodi:namedview
     id="namedview42301"
     pagecolor="#ffffff"
     bordercolor="#000000"
     borderopacity="0.25"
     inkscape:showpageshadow="2"
     inkscape:pageopacity="0.0"
     inkscape:pagecheckerboard="0"
     inkscape:deskcolor="#d1d1d1"
     inkscape:document-units="mm"
     showgrid="false"
     inkscape:zoom="0.22009155"
     inkscape:cx="602.0222"
     inkscape:cy="322.59303"
     inkscape:window-width="1440"
     inkscape:window-height="872"
     inkscape:window-x="0"
     inkscape:window-y="0"
     inkscape:window-maximized="0"
     inkscape:current-layer="layer1"
     showguides="false" />
  <defs
     id="defs42296">
    <inkscape:path-effect
       effect="fillet_chamfer"
       id="path-effect115433"
       is_visible="true"
       lpeversion="1"
       nodesatellites_param="F,0,0,1,0,12.7,0,1 @ F,0,0,1,0,12.7,0,1 @ F,0,0,1,0,12.7,0,1 @ F,0,0,1,0,12.7,0,1"
       unit="in"
       method="auto"
       mode="F"
       radius="0.5"
       chamfer_steps="1"
       flexible="false"
       use_knot_distance="true"
       apply_no_radius="true"
       apply_with_radius="true"
       only_selected="false"
       hide_knots="false" />
    <inkscape:path-effect
       effect="fillet_chamfer"
       id="path-effect53742"
       is_visible="true"
       lpeversion="1"
       nodesatellites_param="F,0,0,1,0,12.7,0,1 @ F,0,0,1,0,12.7,0,1 @ F,0,0,1,0,12.7,0,1 @ F,0,0,1,0,12.7,0,1"
       unit="in"
       method="auto"
       mode="F"
       radius="0.5"
       chamfer_steps="1"
       flexible="false"
       use_knot_distance="true"
       apply_no_radius="true"
       apply_with_radius="true"
       only_selected="false"
       hide_knots="false" />
    <filter
       style="color-interpolation-filters:sRGB"
       inkscape:label="Drop Shadow"
       id="filter77515"
       x="-0.0076653925"
       y="-0.03429788"
       width="1.0264736"
       height="1.1184533">
      <feFlood
         flood-opacity="1"
         flood-color="rgb(10,10,10)"
         result="flood"
         id="feFlood77505" />
      <feComposite
         in="flood"
         in2="SourceGraphic"
         operator="in"
         result="composite1"
         id="feComposite77507" />
      <feGaussianBlur
         in="composite1"
         stdDeviation="0"
         result="blur"
         id="feGaussianBlur77509" />
      <feOffset
         dx="5"
         dy="5"
         result="offset"
         id="feOffset77511" />
      <feComposite
         in="SourceGraphic"
         in2="offset"
         operator="over"
         result="composite2"
         id="feComposite77513" />
    </filter>
    <filter
       style="color-interpolation-filters:sRGB"
       inkscape:label="Drop Shadow"
       id="filter115557"
       x="-0.0080981385"
       y="-0.023658864"
       width="1.0279682"
       height="1.0885882">
      <feFlood
         flood-opacity="1"
         flood-color="rgb(10,10,10)"
         result="flood"
         id="feFlood115547" />
      <feComposite
         in="flood"
         in2="SourceGraphic"
         operator="in"
         result="composite1"
         id="feComposite115549" />
      <feGaussianBlur
         in="composite1"
         stdDeviation="0"
         result="blur"
         id="feGaussianBlur115551" />
      <feOffset
         dx="5"
         dy="6"
         result="offset"
         id="feOffset115553" />
      <feComposite
         in="SourceGraphic"
         in2="offset"
         operator="over"
         result="composite2"
         id="feComposite115555" />
    </filter>
    <filter
       style="color-interpolation-filters:sRGB"
       inkscape:label="Drop Shadow"
       id="filter115597"
       x="0"
       y="0"
       width="1.0157948"
       height="1.0513115">
      <feFlood
         flood-opacity="0.203922"
         flood-color="rgb(10,10,10)"
         result="flood"
         id="feFlood115587" />
      <feComposite
         in="flood"
         in2="SourceGraphic"
         operator="in"
         result="composite1"
         id="feComposite115589" />
      <feGaussianBlur
         in="composite1"
         stdDeviation="0"
         result="blur"
         id="feGaussianBlur115591" />
      <feOffset
         dx="5"
         dy="6"
         result="offset"
         id="feOffset115593" />
      <feComposite
         in="SourceGraphic"
         in2="offset"
         operator="over"
         result="composite2"
         id="feComposite115595" />
    </filter>
    <filter
       style="color-interpolation-filters:sRGB"
       inkscape:label="Drop Shadow"
       id="filter123678"
       x="-0.012840636"
       y="-0.057453882"
       width="1.0368242"
       height="1.1747369">
      <feFlood
         flood-opacity="1"
         flood-color="rgb(10,10,10)"
         result="flood"
         id="feFlood123668" />
      <feComposite
         in="flood"
         in2="SourceGraphic"
         operator="in"
         result="composite1"
         id="feComposite123670" />
      <feGaussianBlur
         in="composite1"
         stdDeviation="0"
         result="blur"
         id="feGaussianBlur123672" />
      <feOffset
         dx="5"
         dy="6"
         result="offset"
         id="feOffset123674" />
      <feComposite
         in="SourceGraphic"
         in2="offset"
         operator="over"
         result="composite2"
         id="feComposite123676" />
    </filter>
    <filter
       style="color-interpolation-filters:sRGB"
       inkscape:label="Drop Shadow"
       id="filter125142"
       x="-0.008302924"
       y="-0.024257148"
       width="1.0283778"
       height="1.0897847">
      <feFlood
         flood-opacity="1"
         flood-color="rgb(26,26,26)"
         result="flood"
         id="feFlood125132" />
      <feComposite
         in="flood"
         in2="SourceGraphic"
         operator="in"
         result="composite1"
         id="feComposite125134" />
      <feGaussianBlur
         in="composite1"
         stdDeviation="0"
         result="blur"
         id="feGaussianBlur125136" />
      <feOffset
         dx="5"
         dy="6"
         result="offset"
         id="feOffset125138" />
      <feComposite
         in="SourceGraphic"
         in2="offset"
         operator="over"
         result="composite2"
         id="feComposite125140" />
    </filter>
    <filter
       style="color-interpolation-filters:sRGB"
       inkscape:label="Drop Shadow"
       id="filter126618"
       x="-0.0076092765"
       y="-0.034046944"
       width="1.0263615"
       height="1.127923">
      <feFlood
         flood-opacity="1"
         flood-color="rgb(26,26,26)"
         result="flood"
         id="feFlood126608" />
      <feComposite
         in="flood"
         in2="SourceGraphic"
         operator="in"
         result="composite1"
         id="feComposite126610" />
      <feGaussianBlur
         in="composite1"
         stdDeviation="0"
         result="blur"
         id="feGaussianBlur126612" />
      <feOffset
         dx="5"
         dy="6"
         result="offset"
         id="feOffset126614" />
      <feComposite
         in="SourceGraphic"
         in2="offset"
         operator="over"
         result="composite2"
         id="feComposite126616" />
    </filter>
    <filter
       style="color-interpolation-filters:sRGB"
       inkscape:label="Drop Shadow"
       id="filter127154"
       x="0"
       y="0"
       width="1.0182118"
       height="1.0591643">
      <feFlood
         flood-opacity="0.2"
         flood-color="rgb(26,26,26)"
         result="flood"
         id="feFlood127144" />
      <feComposite
         in="flood"
         in2="SourceGraphic"
         operator="in"
         result="composite1"
         id="feComposite127146" />
      <feGaussianBlur
         in="composite1"
         stdDeviation="0"
         result="blur"
         id="feGaussianBlur127148" />
      <feOffset
         dx="5"
         dy="6"
         result="offset"
         id="feOffset127150" />
      <feComposite
         in="SourceGraphic"
         in2="offset"
         operator="over"
         result="composite2"
         id="feComposite127152" />
    </filter>
    <filter
       style="color-interpolation-filters:sRGB"
       inkscape:label="Drop Shadow"
       id="filter127336"
       x="0"
       y="0"
       width="1.009106"
       height="1.0295821">
      <feFlood
         flood-opacity="0.301961"
         flood-color="rgb(26,26,26)"
         result="flood"
         id="feFlood127326" />
      <feComposite
         in="flood"
         in2="SourceGraphic"
         operator="in"
         result="composite1"
         id="feComposite127328" />
      <feGaussianBlur
         in="composite1"
         stdDeviation="0"
         result="blur"
         id="feGaussianBlur127330" />
      <feOffset
         dx="2.5"
         dy="3"
         result="offset"
         id="feOffset127332" />
      <feComposite
         in="SourceGraphic"
         in2="offset"
         operator="over"
         result="composite2"
         id="feComposite127334" />
    </filter>
  </defs>
  <g
     inkscape:label="Layer 1"
     inkscape:groupmode="layer"
     id="layer1"
     transform="translate(-407.30102,-443.60605)">
    <g
       id="g127520">
      <path
         id="rect42472"
         transform="matrix(0.98950858,0,0,0.96136506,4.0666504,21.605445)"
         d="m 423.73629,559.69861 h 399.33773 a 12.7,12.7 45 0 1 12.7,12.7 v 119.98251 a 12.7,12.7 135 0 1 -12.7,12.7 H 423.73629 a 12.7,12.7 45 0 1 -12.7,-12.7 V 572.39861 a 12.7,12.7 135 0 1 12.7,-12.7 z"
         style="display:inline;fill:#e63920;fill-opacity:1;stroke:#1a1a1a;stroke-width:7.05313;stroke-linecap:butt;stroke-linejoin:miter;stroke-dasharray:none;stroke-opacity:1;paint-order:stroke fill markers;filter:url(#filter125142);stop-color:#000000" />
      <g
         aria-label="SLICES"
         transform="matrix(0.87439735,0,0,1.0730067,-0.05916179,33.813198)"
         id="text120831"
         style="font-size:167.515px;font-family:SignPainter;-inkscape-font-specification:SignPainter;display:inline;fill:#ffffff;stroke:#1a1a1a;stroke-width:6.82884;stroke-linecap:round;stroke-linejoin:round;paint-order:stroke fill markers;filter:url(#filter126618);stop-color:#000000">
        <path
           d="m 516.76308,598.79212 q 5.36048,0 9.60419,-3.12694 4.24372,-3.3503 4.24372,-11.16767 0,-6.7006 -8.26408,-14.07126 -3.3503,-3.12695 -7.1473,-5.58383 -3.79701,-2.45689 -7.14731,-4.69042 -3.3503,-2.45689 -7.37066,-5.13713 -3.79701,-2.68024 -6.92395,-6.03054 -6.47725,-7.37066 -6.47725,-17.64491 0,-10.94432 10.0509,-18.98504 9.38084,-7.59401 21.44192,-7.59401 6.47725,0 12.06108,1.34012 5.80719,1.34012 12.50779,2.68024 0.67006,5.80719 0.89341,11.83773 0.44671,6.03054 0.89341,12.73114 -0.89341,0.89341 -1.56347,0.89341 -4.24371,0 -4.46707,-1.11677 -1.11676,-7.37066 -6.03054,-14.07126 -5.80718,-8.04072 -13.62455,-8.04072 -4.46707,0 -8.48743,2.68024 -4.02036,2.68024 -4.02036,10.0509 0,9.6042 21.21857,23.67546 3.57365,2.45688 7.37066,5.13712 4.02036,2.45689 7.14731,5.80719 7.1473,8.04072 7.1473,19.43174 0,11.83773 -10.0509,19.65509 -9.60419,7.59402 -21.88862,7.59402 -12.9545,0 -28.14252,-4.02036 -2.23354,-11.83773 -2.9036,-17.64492 -0.4467,-5.80718 -0.67006,-7.37066 0.44671,-0.67006 2.01018,-1.34012 1.78683,-0.67006 2.9036,-0.67006 1.11676,0 1.34012,1.11677 1.11676,7.14731 7.59401,14.96467 7.59401,8.71078 16.7515,8.71078 z"
           style="font-family:Ramaraja;-inkscape-font-specification:Ramaraja"
           id="path127523" />
        <path
           d="m 576.39812,506.9939 q 9.60419,0 20.77186,-1.11676 0.4467,0.67006 0.4467,2.68024 0,2.01018 -0.4467,2.90359 -4.24372,0 -6.7006,0.89341 -2.45689,0.89342 -2.68024,1.56348 -1.11677,2.45688 -1.34012,5.80718 0,3.3503 0,8.04072 v 56.73175 q 0,6.47725 1.34012,9.82755 1.34012,2.90359 9.60419,2.90359 h 9.60419 q 8.93414,0 13.4012,-4.46707 4.69042,-4.69042 8.26408,-14.29461 0.22335,-0.89341 1.56347,-0.89341 4.02036,0 4.91377,0.89341 -1.11676,2.90359 -2.23353,6.47725 -1.11677,3.3503 -2.23353,6.7006 -2.68024,6.92395 -3.57366,12.06108 -25.90898,0 -51.81797,0 l -20.1018,0.22335 q -0.44671,-0.67006 -0.44671,-2.68024 0,-2.01018 0.44671,-2.68024 0.89341,0 3.79701,-0.44671 4.91377,-0.67006 5.80718,-2.23353 1.11677,-2.68024 1.11677,-13.84791 v -54.27486 q 0,-10.72096 -1.11677,-13.8479 -1.56347,-2.45689 -9.60419,-2.45689 -0.44671,-0.89341 -0.44671,-2.90359 0,-2.01018 0.44671,-2.68024 11.16767,1.11676 21.21857,1.11676 z"
           style="font-family:Ramaraja;-inkscape-font-specification:Ramaraja"
           id="path127525" />
        <path
           d="m 636.03335,505.87714 q 11.16766,1.11676 21.21856,1.11676 9.6042,0 20.77186,-1.11676 0.44671,0.67006 0.44671,2.68024 0,2.01018 -0.44671,2.90359 -4.24371,0 -6.7006,0.89341 -2.45688,0.89342 -2.68024,1.56348 -1.11676,2.45688 -1.34012,5.80718 0,3.3503 0,8.04072 v 54.27486 q 0,4.91378 0,8.26408 0.22336,3.3503 0.89342,4.91377 0.67006,1.34012 1.78682,2.01018 1.34012,0.44671 2.68024,0.89341 2.45689,0.44671 5.36048,0.44671 0.44671,0.89341 0.44671,2.90359 0,2.01018 -0.44671,2.68024 -20.99521,-2.01018 -41.99042,0 -0.44671,-0.67006 -0.44671,-2.68024 0,-2.01018 0.44671,-2.90359 4.69042,0 6.92395,-0.89341 2.23353,-1.11677 2.68024,-1.78683 1.11677,-2.68024 1.11677,-13.84791 v -54.27486 q 0,-10.72096 -1.11677,-13.8479 -1.56347,-2.45689 -9.60419,-2.45689 -0.44671,-0.89341 -0.44671,-2.90359 0,-2.01018 0.44671,-2.68024 z"
           style="font-family:Ramaraja;-inkscape-font-specification:Ramaraja"
           id="path127527" />
        <path
           d="m 768.7052,573.32984 q 2.23353,0 5.13713,1.78683 0,1.56347 -1.56348,8.71078 -3.12694,13.4012 -4.46706,13.84791 -7.14731,2.45688 -14.74132,4.69042 -7.37066,2.23353 -17.86827,2.23353 -10.27425,0 -19.43174,-3.57365 -9.15749,-3.79701 -16.08144,-10.27426 -14.96467,-14.07126 -14.96467,-34.84312 0,-20.99521 14.96467,-35.95988 14.74132,-14.74132 35.95989,-14.74132 17.86826,0 30.82276,2.68024 l 4.91377,22.33533 q 0,0.67006 -1.34012,1.56347 -1.11677,0.67006 -2.68024,0.67006 -1.34012,0 -1.78683,-0.67006 -2.45688,-7.59401 -6.47724,-11.61437 -8.26408,-8.71078 -22.11198,-8.71078 -14.74132,0 -22.11198,12.28443 -6.47725,10.72096 -6.47725,27.91917 0,19.20839 7.37066,31.71617 8.71078,14.74132 24.34551,14.74132 14.96468,0 22.11198,-11.61437 3.57366,-5.36048 4.91378,-8.93413 1.34012,-3.79701 1.56347,-4.24372 z"
           style="font-family:Ramaraja;-inkscape-font-specification:Ramaraja"
           id="path127529" />
        <path
           d="m 853.13258,527.31906 q -0.89341,0.89341 -2.45689,0.89341 -2.68024,0 -3.12694,-1.34012 -2.45689,-6.03054 -5.80719,-10.27425 -3.3503,-4.46707 -10.27425,-4.46707 h -12.06108 q -2.68024,0 -4.91378,0.22335 -2.01018,0.22336 -2.45688,1.56348 -0.89342,1.78682 -0.89342,8.93413 v 26.35569 q 0,1.56348 6.47725,1.56348 h 7.81737 q 6.25389,0 8.26407,-1.56348 2.01018,-1.56347 2.90359,-3.57365 0.89342,-2.01018 1.78683,-5.13713 0,-1.11676 1.78683,-1.11676 2.01018,0 2.68024,0.67006 v 28.36587 q -0.67006,0.67006 -2.68024,0.67006 -1.78683,0 -2.01018,-1.34012 -2.01018,-7.59401 -5.13713,-8.71078 -2.90359,-1.34012 -12.50779,-1.34012 -9.38084,0 -9.38084,2.23353 v 24.56887 q 0,6.47725 1.34012,9.82755 1.34012,2.90359 9.6042,2.90359 h 9.60419 q 8.93413,0 13.4012,-4.46707 4.69042,-4.69042 8.26407,-14.29461 0.22336,-0.89341 1.56348,-0.89341 4.02036,0 4.91377,0.89341 -1.11677,2.90359 -2.23353,6.47725 -1.11677,3.3503 -2.23354,6.7006 -2.68024,6.92395 -3.57365,12.06108 -25.90899,0 -51.81797,0 l -20.1018,0.22335 q -0.44671,-0.67006 -0.44671,-2.68024 0,-2.01018 0.44671,-2.68024 0.89341,0 3.797,-0.44671 4.91378,-0.67006 5.80719,-2.23353 1.11677,-2.68024 1.11677,-13.84791 v -54.27486 q 0,-10.72096 -1.11677,-13.8479 -1.56347,-2.23354 -9.60419,-2.23354 -0.44671,-0.89341 -0.44671,-2.90359 0,-2.01018 0.44671,-2.68024 5.13712,0.44671 10.72096,0.44671 h 10.4976 l 47.79762,-0.89342 q 1.56347,10.0509 4.24371,21.66528 z"
           style="font-family:Ramaraja;-inkscape-font-specification:Ramaraja"
           id="path127531" />
        <path
           d="m 901.82347,598.79212 q 5.36048,0 9.6042,-3.12694 4.24371,-3.3503 4.24371,-11.16767 0,-6.7006 -8.26407,-14.07126 -3.3503,-3.12695 -7.14731,-5.58383 -3.79701,-2.45689 -7.14731,-4.69042 -3.3503,-2.45689 -7.37066,-5.13713 -3.797,-2.68024 -6.92395,-6.03054 -6.47725,-7.37066 -6.47725,-17.64491 0,-10.94432 10.0509,-18.98504 9.38084,-7.59401 21.44192,-7.59401 6.47725,0 12.06108,1.34012 5.80719,1.34012 12.50779,2.68024 0.67006,5.80719 0.89341,11.83773 0.44671,6.03054 0.89342,12.73114 -0.89342,0.89341 -1.56348,0.89341 -4.24371,0 -4.46706,-1.11677 -1.11677,-7.37066 -6.03054,-14.07126 -5.80719,-8.04072 -13.62456,-8.04072 -4.46706,0 -8.48742,2.68024 -4.02036,2.68024 -4.02036,10.0509 0,9.6042 21.21856,23.67546 3.57366,2.45688 7.37066,5.13712 4.02036,2.45689 7.14731,5.80719 7.14731,8.04072 7.14731,19.43174 0,11.83773 -10.0509,19.65509 -9.6042,7.59402 -21.88863,7.59402 -12.95449,0 -28.14252,-4.02036 -2.23353,-11.83773 -2.90359,-17.64492 -0.44671,-5.80718 -0.67006,-7.37066 0.4467,-0.67006 2.01018,-1.34012 1.78682,-0.67006 2.90359,-0.67006 1.11677,0 1.34012,1.11677 1.11677,7.14731 7.59401,14.96467 7.59402,8.71078 16.7515,8.71078 z"
           style="font-family:Ramaraja;-inkscape-font-specification:Ramaraja"
           id="path127533" />
      </g>
      <g
         aria-label="Spenny's"
         transform="matrix(1.1497627,-0.14117311,0.13094115,1.0664301,-298.2112,59.371253)"
         id="text127102"
         style="font-size:100px;font-family:SignPainter;-inkscape-font-specification:SignPainter;fill:#1a1a1a;stroke-width:6.615;stroke-linecap:round;stroke-linejoin:round;paint-order:stroke fill markers;filter:url(#filter127336);stop-color:#000000"
         inkscape:transform-center-x="-175.15731"
         inkscape:transform-center-y="-208.22722">
        <path
           d="m 560.72693,524.99949 c 7.9,9.1 17.6,13.2 24.9,13.2 6,0 10.9,-2.1 13.5,-5.1 2.6,-3.1 3.9,-5.7 3.9,-8 0,-1.9 -1.1,-3.7 -3,-5.1 -3.9,-2.8 -17.6,-8.5 -17.3,-15.1 0.5,-11.5 22.4,-26.2 26.1,-23.5 1.4,1 -1.3,5.4 -3.8,9.1 -3.3,4.4 -4.6,8.2 -4.6,10.4 0,2.3 1,4 2.4,5.4 1.9,2 3,1.2 3.9,-0.4 1.4,-2.4 4.3,-7.6 6.7,-10.8 1.5,-2.2 4,-6.2 3,-10.3 -0.7,-2.7 -2.5,-6 -5.3,-8.6 -1.7,-1.4 -3.7,-2.1 -6.1,-2.1 -2.3,0 -4.4,0.3 -7.7,1.7 -9,3.8 -24.6,15.7 -24.6,29.3 0,10.2 13.9,15.6 21.1,21.2 1.1,0.9 1.6,2.7 0.1,4.2 -1.1,1.1 -3.1,1.6 -5.3,1.6 -5.8,0 -12.4,-5 -16.3,-8.2 -2.1,-1.7 -4.9,-2.5 -7.8,-2.5 -1.2,0 -2.3,0.1 -3.1,0.3 -1.4,0.5 -2.1,1.6 -0.7,3.3 z"
           id="path127536" />
        <path
           d="m 624.02676,512.59949 c 4.3,-7.3 9.8,-11.9 11.6,-11.1 0.5,0.2 0.7,1.4 0.7,3.2 0,3.3 -1.2,8.4 -3.6,13.1 -4.1,8.3 -8.6,13.8 -11.7,13.8 -2.6,0 -3.3,-7.2 -0.2,-13.6 z m 20.8,-4.9 c 0,-5.1 -2.9,-10.5 -8.9,-10.5 -2.7,0 -5.6,1.3 -8.1,3 0,-1.3 -0.2,-2.6 -1,-3.7 -0.8,-1.1 -2.1,-1.5 -3.9,0.7 -6.2,8.3 -22.7,39.4 -25.6,48.9 -0.9,2.8 -1.2,4.9 -1.2,6.5 0,2.1 0.5,3.5 2,5.4 1,1.2 2.2,0.8 3,-1 4.2,-9.8 8.5,-18.4 12.9,-26.6 2.3,5.4 7.2,8.1 15.1,8.1 8.3,0 16.7,-2.8 21.2,-10.9 1.7,-3 1.6,-5.8 1.4,-6.8 -0.4,-2 -2.5,-2.5 -3.7,-0.2 -2.9,5.8 -8.6,12.4 -16,13.9 3.2,-2.6 6.5,-7.1 8.9,-12.6 2.3,-4.8 3.9,-9.9 3.9,-14.2 z"
           id="path127538" />
        <path
           d="m 672.92676,501.99949 c 1.1,0.9 -1,5.6 -3.9,9.5 -2,2.7 -5.2,5.7 -7.6,5.7 -0.7,0 -1.4,-0.2 -2.2,-0.7 4.8,-9.6 12.2,-15.7 13.7,-14.5 z m 7.5,4 c 0,-1.3 -0.4,-2.8 -1,-3.7 -1.4,-2 -3.4,-3.6 -6.2,-5.2 -1,-0.6 -2.1,-0.8 -3.5,-0.8 -5.8,0 -13.9,5.3 -19.1,15.9 -2.1,4 -3.1,7.9 -3.1,11.5 0,8 5.1,14.1 14.4,14 7.8,-0.1 15.8,-4.8 20,-10.9 1.8,-2.7 1.7,-5.6 1.4,-6.5 -0.8,-2 -2.1,-1.8 -3.2,-0.2 -4.1,6.2 -10.8,13.6 -18.4,13.6 -3,0 -4.8,-3.1 -4.8,-7.5 0,-1.8 0.3,-3.9 0.9,-5.9 2.3,1.5 4.7,2.2 7.1,2.2 8.8,0 15.5,-10.5 15.5,-16.5 z"
           id="path127540" />
        <path
           d="m 696.42673,497.19949 c -1,-1.8 -2.5,-1.9 -3.8,0 -6.2,9.3 -13.9,23.3 -15.8,28.9 -0.6,2 -0.9,3.7 -0.9,5.2 0,2.4 0.8,4.1 2.2,5.5 1.6,1.6 2.9,1 3.6,-0.6 4.1,-9 8.6,-18.8 14.1,-24.6 5.5,-6.2 10.4,-9 11.3,-9 0.7,0 -0.9,2.6 -3,5.9 -3.9,6.2 -8.5,15.4 -8.5,20.8 0,5.2 2.9,8.6 9.6,8.6 6,0 13.3,-5.3 16.1,-10.8 1.4,-2.7 1.3,-5.8 0.5,-7 -0.9,-1.4 -2.3,-1.5 -3.3,0.4 -3.6,6.7 -8.8,13.2 -12.2,13.2 -1.3,0 -2,-1.3 -2,-3.4 0,-3.7 3.4,-10.3 6.6,-15.4 3.2,-5.6 5,-8.8 5,-11 0,-3.8 -2.7,-7.3 -5.6,-7.3 -3.6,0 -8.4,3.3 -12.7,7.3 0.1,-0.6 0.1,-1.3 0.1,-2 0,-1.6 -0.4,-3.2 -1.3,-4.7 z"
           id="path127542" />
        <path
           d="m 734.82661,497.19949 c -1,-1.8 -2.5,-1.9 -3.8,0 -6.2,9.3 -13.9,23.3 -15.8,28.9 -0.6,2 -0.9,3.7 -0.9,5.2 0,2.4 0.8,4.1 2.2,5.5 1.6,1.6 2.9,1 3.6,-0.6 4.1,-9 8.6,-18.8 14.1,-24.6 5.5,-6.2 10.4,-9 11.3,-9 0.7,0 -0.9,2.6 -3,5.9 -3.9,6.2 -8.5,15.4 -8.5,20.8 0,5.2 2.9,8.6 9.6,8.6 6,0 13.3,-5.3 16.1,-10.8 1.4,-2.7 1.3,-5.8 0.5,-7 -0.9,-1.4 -2.3,-1.5 -3.3,0.4 -3.6,6.7 -8.8,13.2 -12.2,13.2 -1.3,0 -2,-1.3 -2,-3.4 0,-3.7 3.4,-10.3 6.6,-15.4 3.2,-5.6 5,-8.8 5,-11 0,-3.8 -2.7,-7.3 -5.6,-7.3 -3.6,0 -8.4,3.3 -12.7,7.3 0.1,-0.6 0.1,-1.3 0.1,-2 0,-1.6 -0.4,-3.2 -1.3,-4.7 z"
           id="path127544" />
        <path
           d="m 796.52639,519.49949 c -0.4,-1.3 -1.9,-1.1 -3.2,0.7 -3.2,4.5 -8.4,9.6 -14.5,13.3 4.1,-9.5 9.3,-19.2 12.2,-24.8 1.3,-2.5 1.8,-4.7 1.8,-6.7 0,-2.1 -0.4,-3.6 -1.9,-5.1 -1.1,-1.1 -2.4,-0.9 -3.8,0.9 -2.4,3.6 -5.1,9.7 -11.8,21 -4.9,8.3 -9.4,14.2 -12,14.2 -2.6,0 -1.7,-4 -0.3,-7.6 1.9,-4.7 4,-8.8 7.4,-14.2 2.3,-3.7 3.5,-6.6 3.5,-9.1 0,-1.6 -0.9,-3.4 -1.9,-4.8 -1.1,-1.6 -2.6,-1.5 -3.9,0.2 -6.2,8.5 -11.1,18.6 -13.4,24.9 -0.9,2.5 -1.3,4.9 -1.3,7 0,4.2 2.2,8 7.2,8 3,0 5.6,-0.9 8.2,-2.8 l -1.5,3.5 c -9.7,3.9 -17.8,10 -20.9,18.6 -0.6,1.8 -0.9,3.5 -0.9,4.7 0,3.2 1.5,6.2 3,8.3 2.4,3.2 4.5,3.2 6.8,2.3 8.7,-3.3 15.5,-19.3 21,-32.5 8.2,-3.4 14.8,-7.1 18.8,-13.2 1.7,-2.6 1.9,-5.2 1.4,-6.8 z m -31.8,25.1 c -2.4,5.4 -4.8,10.3 -6.9,14 -2.8,4.9 -4.9,7.8 -5.6,7.2 -1,-0.9 -0.3,-5 2.2,-9.7 2.1,-3.9 5.5,-8.2 10.3,-11.5 z"
           id="path127546" />
        <path
           d="m 815.62605,479.29949 c 1.2,-2 2.1,-4.4 1.2,-6.5 -0.8,-1.8 -2.4,-2.6 -4.3,-0.2 -3.3,3.9 -9.1,14.4 -10.9,19.6 -0.4,1.3 0,2.2 1.3,2.4 1.1,0.2 2.5,0 3.7,-1.6 2.6,-3.3 7.9,-11.2 9,-13.7 z"
           id="path127548" />
        <path
           d="m 811.4259,532.99949 c -2.2,0 -4.3,-3.5 -5.5,-8.2 3,-4.3 5.8,-8.6 8.2,-12.4 0.2,2.7 0.3,5.9 0.3,9.1 0,6.5 -0.9,11.5 -3,11.5 z m -13.7,-9.6 c 0,2.3 0.6,4.7 1.7,6.6 3.4,6.3 9.4,7.9 15.4,7.7 7.5,-0.3 14.5,-4.1 18.3,-11.1 1.8,-3.1 1.5,-5.9 1,-6.9 -0.7,-1.6 -2.2,-2.3 -3.1,0 -1.8,4.9 -4.6,8.2 -8.7,11 1.1,-2.2 1.6,-5 1.7,-7.5 0.2,-5.4 -1.1,-11.9 -1.1,-19 0,-1.3 0.1,-3 0.2,-4.2 3.1,-5.1 2.5,-7.3 -0.2,-7.3 -1.5,0 -3.3,0.7 -4.9,2.1 -2.3,1.9 -3.5,4.2 -3.9,7.8 -2.6,4.3 -6.1,9.5 -9.4,14.2 -0.3,-2.4 -1.8,-2.9 -3.8,-1.2 -2.2,1.9 -3.2,4.8 -3.2,7.8 z"
           id="path127550" />
      </g>
    </g>
  </g>
</svg>
